<svg xmlns="http://www.w3.org/2000/svg" xmlns:xlink="http://www.w3.org/1999/xlink" version="1.1" x="0px" y="0px" viewBox="0 0 100 100" enable-background="new 0 0 100 100" xml:space="preserve"><path d="M77.5,1.7H22.5C11,1.7,1.7,11,1.7,22.5v54.9C1.7,89,11,98.3,22.5,98.3h54.9c11.5,0,20.8-9.3,20.8-20.8V22.5  C98.3,11,89,1.7,77.5,1.7z M79.8,73.8c-1.5,1.6-3.3,3.1-4.7,4.8c-2.2,2.4-4.9,3.3-8,3.1c-4.4-0.3-8.5-1.8-12.6-3.7  c-8.9-4.3-16.6-10.3-23-18c-4.7-5.7-8.6-11.7-11.2-18.7c-1.2-3.4-2.1-6.8-1.8-10.3c0.2-2.2,1.1-4.1,2.7-5.7c1.7-1.7,3.4-3.4,5.2-5.2  c2.3-2.2,5.2-2.2,7.4,0c1.4,1.3,2.8,2.8,4.2,4.2c1.3,1.3,2.7,2.7,4.1,4.1c2.4,2.4,2.4,5.2,0,7.6c-1.7,1.7-3.4,3.4-5.2,5.1  c-0.5,0.5-0.5,0.8-0.3,1.3c1.1,2.8,2.8,5.2,4.6,7.5c3.7,4.6,8,8.6,12.9,11.8c1.1,0.7,2.3,1.1,3.4,1.8c0.6,0.3,1,0.2,1.4-0.3  c1.7-1.7,3.4-3.4,5.2-5.2c2.3-2.3,5.2-2.3,7.4,0c2.8,2.8,5.6,5.6,8.3,8.3C82.1,68.5,82.1,71.4,79.8,73.8z"></path></svg>